<?xml version="1.0" standalone="no"?>
<!DOCTYPE svg PUBLIC "-//W3C//DTD SVG 20010904//EN"
 "http://www.w3.org/TR/2001/REC-SVG-20010904/DTD/svg10.dtd">
<svg version="1.0" xmlns="http://www.w3.org/2000/svg"
 width="856.000000pt" height="856.000000pt" viewBox="0 0 856.000000 856.000000"
 preserveAspectRatio="xMidYMid meet">
<metadata>
Created by potrace 1.14, written by Peter Selinger 2001-2017
</metadata>
<g transform="translate(0.000000,856.000000) scale(0.100000,-0.100000)"
fill="#000000" stroke="none">
<path d="M7290 8538 c-19 -4 -57 -7 -85 -7 -27 1 -63 -4 -78 -10 -16 -6 -47
-11 -71 -11 -46 0 -212 -48 -291 -84 -27 -13 -75 -33 -105 -46 -259 -106 -306
-131 -402 -211 -34 -28 -73 -56 -87 -62 -22 -9 -124 -94 -168 -139 -7 -7 -56
-58 -108 -112 l-96 -100 -56 12 c-31 6 -64 18 -73 27 -9 8 -27 15 -41 15 -21
0 -60 10 -254 65 -71 20 -282 35 -344 23 -35 -6 -69 -5 -109 3 -68 15 -273 19
-265 6 3 -5 -4 -6 -16 -3 -11 3 -29 8 -39 11 -10 3 -63 -4 -118 -14 -54 -11
-137 -25 -184 -31 -47 -6 -107 -17 -135 -25 -27 -7 -57 -13 -65 -13 -18 1
-279 -29 -375 -42 -249 -34 -477 -75 -504 -90 -11 -5 -42 -10 -70 -10 -28 0
-51 -4 -51 -9 0 -5 -25 -15 -55 -22 -30 -7 -55 -15 -55 -19 0 -9 -80 -30 -114
-30 -14 0 -26 5 -26 10 0 12 -62 82 -130 147 -25 23 -65 61 -89 85 -24 23 -60
50 -80 60 -20 10 -67 43 -106 74 -68 55 -240 148 -319 174 -22 7 -53 21 -70
31 -17 9 -58 25 -91 35 -33 9 -62 20 -65 23 -4 6 -101 39 -228 77 -24 7 -49
11 -57 8 -7 -3 -41 1 -74 10 -34 9 -74 13 -90 10 -16 -3 -51 -2 -77 4 -30 6
-84 6 -139 1 -76 -7 -208 -10 -465 -10 -25 0 -74 -6 -110 -15 -36 -8 -87 -19
-115 -23 -27 -4 -68 -17 -90 -29 -22 -12 -47 -22 -55 -22 -9 0 -27 -10 -40
-22 -13 -12 -34 -23 -47 -24 -12 0 -46 -12 -75 -26 -68 -32 -118 -48 -151 -48
-29 0 -58 -42 -49 -70 8 -26 34 -50 55 -50 10 0 31 -13 45 -28 38 -40 79 -65
97 -58 33 12 132 -16 190 -54 17 -11 37 -23 45 -27 8 -4 21 -12 30 -20 18 -15
71 -53 122 -87 20 -14 50 -45 66 -68 16 -24 48 -57 70 -75 42 -34 102 -114
171 -228 23 -38 60 -97 81 -130 41 -64 93 -164 105 -205 4 -14 14 -34 21 -45
8 -11 14 -30 14 -42 0 -13 4 -31 9 -41 6 -9 22 -60 36 -112 15 -52 31 -104 36
-115 4 -11 16 -47 25 -80 29 -108 39 -140 57 -172 9 -18 17 -38 17 -46 0 -27
135 -144 203 -176 56 -27 67 -36 67 -57 0 -13 -8 -33 -17 -43 -45 -49 -66 -78
-93 -132 -47 -92 -97 -221 -105 -266 -4 -24 -11 -45 -16 -49 -16 -10 -55 -96
-79 -174 -12 -41 -31 -92 -42 -113 -11 -22 -21 -60 -23 -85 -1 -26 -12 -78
-22 -117 -11 -38 -25 -88 -31 -110 -33 -122 -88 -303 -145 -480 -43 -131 -71
-237 -81 -308 -9 -59 -23 -137 -32 -173 -8 -36 -17 -89 -19 -117 -5 -72 -25
-169 -38 -185 -16 -21 -18 -317 -1 -371 8 -25 14 -64 14 -86 1 -87 59 -255 90
-255 4 0 16 -21 26 -48 10 -26 26 -58 36 -71 10 -13 18 -29 18 -36 0 -7 20
-40 45 -73 25 -33 52 -77 61 -98 9 -22 22 -46 30 -54 33 -38 83 -151 99 -225
9 -44 31 -120 47 -170 17 -49 37 -115 45 -145 7 -30 20 -61 28 -70 7 -8 18
-33 24 -55 6 -22 17 -49 24 -60 8 -11 22 -54 32 -95 10 -41 26 -88 37 -105 10
-17 27 -58 38 -90 11 -33 29 -68 39 -80 10 -11 36 -56 56 -100 44 -92 85 -157
127 -199 16 -16 36 -45 44 -64 8 -19 29 -52 47 -73 17 -21 59 -72 92 -115 86
-110 291 -312 365 -359 93 -60 161 -95 182 -95 6 0 39 -13 72 -29 107 -50 134
-61 148 -61 8 0 48 -11 88 -25 114 -39 272 -66 393 -67 l108 -1 24 -31 c14
-18 32 -50 41 -71 15 -36 62 -100 110 -149 77 -77 151 -107 284 -112 156 -7
457 -32 480 -40 8 -3 76 -8 151 -11 124 -4 139 -3 170 16 18 11 54 23 79 27
66 9 107 37 180 121 36 41 90 103 121 137 31 35 59 72 63 82 14 44 70 60 253
74 67 4 130 13 141 19 12 6 46 11 77 11 36 0 70 7 95 20 22 11 78 27 124 35
151 26 247 70 441 200 28 19 59 42 70 52 10 10 33 26 50 36 75 47 247 230 287
307 18 35 66 109 106 164 39 54 72 104 72 109 0 5 15 26 33 47 57 65 87 105
87 117 0 6 3 13 8 15 16 7 101 146 118 193 9 28 23 57 30 65 13 15 51 116 120
314 19 54 47 121 63 150 16 28 41 85 55 126 15 41 57 136 95 210 38 74 78 165
90 201 12 36 42 95 66 130 45 64 65 112 65 160 0 14 11 39 25 55 14 16 25 36
25 44 0 8 7 33 14 55 9 26 11 44 5 52 -7 7 -7 25 0 50 6 21 10 54 9 73 -1 19
2 100 6 180 7 121 5 158 -9 220 -9 41 -21 129 -26 195 -29 366 -33 398 -48
468 -6 26 -16 89 -21 140 -5 50 -25 147 -45 214 -19 67 -35 128 -35 136 0 9
-14 46 -31 84 -18 37 -42 100 -55 138 -12 39 -48 142 -78 230 -64 183 -91 274
-116 395 -10 47 -28 112 -41 145 -12 33 -35 101 -50 150 -15 50 -38 117 -53
150 -14 33 -26 76 -26 96 0 35 2 37 58 57 72 27 169 90 214 141 20 21 43 60
52 87 10 27 28 78 41 114 13 36 44 139 69 229 53 187 117 359 150 399 20 24
67 99 135 214 13 23 33 50 43 60 10 10 18 22 18 27 0 8 37 48 202 217 41 42
82 72 131 95 40 19 74 36 77 39 16 17 69 30 120 30 48 0 64 4 89 26 17 14 31
31 31 38 0 6 19 20 43 31 29 14 43 27 45 43 5 31 -24 62 -57 62 -40 0 -115 26
-189 64 -100 52 -182 86 -206 86 -13 0 -42 6 -67 14 -120 38 -202 43 -331 20
-20 -4 -45 -3 -55 1 -10 4 -49 8 -88 10 -38 2 -102 8 -140 12 -39 5 -86 5
-105 1z m-107 -485 c50 -8 33 -37 -45 -78 -40 -20 -84 -47 -98 -60 -26 -24
-98 -65 -114 -65 -5 0 -24 -11 -42 -25 -18 -14 -36 -25 -40 -25 -13 0 -189
-168 -244 -233 -30 -36 -66 -72 -80 -80 -14 -8 -45 -49 -70 -91 -53 -89 -75
-97 -110 -41 -12 19 -25 35 -30 35 -5 0 -33 23 -62 51 -29 28 -78 70 -108 92
-30 22 -58 45 -62 51 -13 18 -9 46 6 46 8 0 35 17 60 38 89 73 152 119 201
147 28 16 57 34 66 42 9 7 58 25 110 38 138 36 189 51 236 70 23 9 48 15 55
12 7 -2 33 6 58 19 98 50 221 72 313 57z m-5512 -218 c24 -9 58 -20 74 -24 17
-4 46 -15 65 -24 19 -8 54 -19 77 -22 24 -4 45 -11 48 -15 3 -5 33 -14 66 -21
33 -6 62 -16 65 -20 3 -5 20 -9 38 -9 39 0 139 -33 175 -58 15 -9 45 -24 68
-33 43 -17 79 -42 136 -93 18 -15 42 -32 55 -37 34 -13 27 -45 -18 -78 -22
-16 -61 -54 -87 -86 -25 -31 -61 -62 -79 -70 -17 -7 -38 -26 -46 -41 -17 -36
-49 -55 -56 -34 -11 32 -373 394 -417 417 -16 8 -37 21 -45 28 -8 7 -35 21
-60 31 -25 10 -61 31 -81 48 -20 17 -76 51 -123 74 -47 24 -86 50 -86 57 0 8
15 17 38 20 20 4 44 8 52 10 26 6 96 -4 141 -20z m5769 -39 c0 -13 -4 -26 -9
-28 -30 -11 -191 -390 -191 -451 0 -10 -13 -51 -28 -90 -16 -40 -41 -110 -56
-157 -36 -110 -72 -175 -155 -280 -21 -28 -113 -80 -139 -80 -7 0 -33 42 -58
93 -34 68 -58 102 -93 130 -25 21 -55 46 -66 55 -27 23 -85 97 -85 110 0 12
32 52 72 91 30 30 26 25 141 142 48 49 92 89 97 89 6 0 39 24 73 53 34 29 78
59 97 67 19 7 38 19 42 25 4 7 39 33 78 59 38 26 70 51 70 56 0 5 18 19 39 30
22 11 60 40 84 65 51 51 87 60 87 21z m-6350 -11 c0 -8 -7 -15 -15 -15 -8 0
-15 7 -15 15 0 8 7 15 15 15 8 0 15 -7 15 -15z m163 -206 c12 -7 39 -27 60
-45 20 -19 41 -34 45 -34 4 0 30 -21 58 -47 58 -57 185 -148 234 -169 8 -4 24
-15 35 -24 11 -9 52 -39 90 -65 85 -59 305 -279 305 -306 0 -21 -110 -230
-154 -294 -23 -33 -55 -81 -70 -107 -33 -59 -55 -61 -132 -17 -48 27 -73 53
-109 110 -6 9 -26 40 -47 70 -20 30 -42 72 -48 94 -7 22 -17 51 -23 65 -5 14
-13 34 -17 45 -4 11 -12 32 -18 46 -10 25 -43 150 -63 239 -17 74 -77 209
-159 358 -22 40 -40 77 -40 82 0 13 26 13 53 -1z m3472 -249 c33 -6 112 -11
175 -11 116 0 241 -14 272 -30 9 -5 81 -18 160 -28 200 -27 314 -56 360 -92
20 -16 41 -29 46 -29 5 0 34 -20 64 -43 51 -39 77 -68 163 -173 44 -55 97
-135 111 -171 21 -50 93 -151 148 -207 45 -47 85 -101 150 -205 15 -25 41 -63
57 -83 16 -20 45 -69 64 -110 19 -40 48 -95 64 -123 17 -27 39 -66 49 -85 11
-19 63 -156 117 -305 53 -148 107 -292 119 -320 12 -27 27 -68 33 -90 21 -81
155 -491 179 -548 14 -32 32 -93 40 -135 9 -42 25 -104 36 -137 27 -81 33
-225 13 -338 -10 -56 -12 -94 -6 -105 13 -25 12 -112 -4 -242 -16 -136 -44
-307 -56 -335 -4 -11 -11 -42 -14 -69 -4 -26 -15 -80 -26 -120 -10 -39 -19
-85 -19 -102 0 -18 -21 -81 -46 -140 -25 -60 -50 -125 -56 -144 -11 -39 -67
-143 -80 -148 -4 -2 -8 -8 -8 -14 0 -6 -25 -47 -55 -92 -55 -82 -102 -134
-218 -241 -36 -33 -66 -65 -66 -71 -1 -7 -8 -14 -16 -17 -8 -4 -25 -28 -39
-55 -14 -28 -31 -56 -39 -63 -47 -48 -147 -228 -172 -310 -4 -13 -15 -42 -26
-64 -35 -76 -71 -170 -82 -213 -7 -23 -17 -42 -23 -42 -12 0 -29 -19 -94 -106
-43 -58 -184 -223 -242 -284 -24 -25 -72 -61 -108 -80 -206 -108 -246 -123
-358 -135 -80 -8 -83 -1 -48 120 15 51 34 149 43 217 18 134 27 152 101 184
18 8 37 25 41 37 5 12 27 39 49 59 47 45 104 127 138 203 31 67 64 220 64 295
-1 107 -65 294 -122 355 -46 50 -39 76 50 185 42 52 91 109 107 126 81 84 214
257 256 334 11 19 34 62 53 96 18 33 39 78 46 100 7 21 21 50 30 64 10 14 23
45 29 70 7 25 21 66 31 92 11 26 20 60 20 77 0 16 5 42 11 58 13 33 29 168 35
303 5 88 3 97 -18 123 -34 42 -58 28 -58 -32 0 -30 -8 -62 -22 -88 -13 -23
-37 -68 -55 -100 -17 -32 -43 -71 -57 -88 -14 -16 -26 -34 -26 -38 0 -5 -21
-38 -47 -75 -43 -62 -80 -101 -160 -170 -18 -15 -62 -54 -97 -87 -35 -33 -84
-77 -108 -98 -24 -21 -66 -60 -94 -88 -33 -31 -93 -70 -160 -105 -161 -83
-159 -82 -179 -104 -16 -18 -85 -30 -85 -15 0 3 -8 65 -17 138 -30 222 -24
454 17 677 6 30 10 71 10 90 0 19 9 67 20 105 12 39 32 123 45 188 20 101 30
129 69 191 25 39 68 94 95 122 l51 49 -21 55 c-30 81 -59 106 -134 119 l-62
11 -98 -45 c-99 -46 -111 -56 -242 -200 -15 -16 -43 -66 -63 -110 -19 -44 -48
-101 -63 -127 -35 -58 -47 -100 -47 -160 0 -26 -4 -50 -10 -53 -5 -3 -10 -32
-10 -65 0 -32 -8 -86 -19 -121 -10 -35 -24 -111 -30 -169 -7 -58 -16 -132 -21
-165 -5 -34 -5 -110 0 -177 7 -106 16 -148 41 -216 5 -13 9 -34 9 -47 0 -41
49 -173 98 -267 42 -80 55 -96 127 -151 44 -34 81 -65 83 -69 2 -4 34 -30 71
-57 101 -73 171 -150 171 -188 0 -11 4 -23 9 -28 4 -6 27 -62 51 -125 37 -100
44 -128 48 -215 l4 -100 -33 -50 c-19 -27 -47 -56 -63 -64 -16 -7 -65 -38
-110 -68 -88 -58 -158 -84 -301 -108 -103 -18 -339 -19 -400 -3 -22 6 -76 12
-120 14 -44 1 -127 6 -185 10 -58 4 -141 7 -186 5 -83 -2 -105 1 -332 43 -137
26 -150 32 -227 106 -12 11 -25 20 -31 20 -17 0 -61 53 -73 89 -12 37 -15 124
-4 134 3 4 5 33 4 65 -2 44 3 68 18 93 10 19 25 54 31 79 7 25 15 47 19 50 11
7 110 127 146 175 16 22 38 46 50 54 11 8 42 37 70 64 52 52 81 70 129 81 16
4 44 19 62 33 19 14 57 30 86 37 47 10 54 16 81 61 17 28 43 96 58 153 15 57
41 133 58 170 38 86 53 160 51 264 -1 46 1 124 5 173 6 84 3 129 -25 310 -27
177 -159 456 -295 620 -13 17 -42 57 -64 90 -73 110 -97 127 -164 116 -28 -4
-52 -20 -93 -61 -30 -30 -58 -66 -61 -79 -9 -34 21 -128 77 -246 44 -91 78
-239 97 -415 16 -149 16 -170 0 -346 -10 -114 -22 -195 -30 -208 -8 -11 -17
-34 -21 -50 -4 -16 -20 -42 -37 -58 -25 -26 -34 -29 -65 -24 -30 6 -84 35
-120 64 -5 5 -28 15 -50 22 -21 7 -60 34 -86 59 -78 77 -129 121 -140 121 -6
0 -60 49 -121 110 -61 60 -114 110 -117 110 -10 0 -101 119 -124 160 -10 19
-21 37 -25 40 -3 3 -18 23 -32 45 -57 86 -92 162 -98 208 -7 56 -17 62 -43 27
-15 -21 -19 -43 -19 -125 0 -103 36 -327 67 -422 26 -82 129 -296 161 -338 13
-16 27 -34 31 -40 4 -5 25 -39 47 -75 21 -36 56 -83 77 -105 21 -22 38 -43 38
-47 0 -4 52 -66 115 -138 131 -150 138 -168 76 -200 -35 -17 -111 -110 -111
-135 0 -4 -16 -42 -35 -84 -71 -159 -60 -429 26 -617 10 -24 19 -50 19 -59 0
-20 102 -130 144 -156 l30 -18 2 -248 c2 -178 7 -270 18 -326 9 -43 16 -85 16
-93 0 -19 -93 -19 -146 0 -22 7 -59 17 -84 21 -50 8 -277 133 -319 176 -14 14
-44 50 -66 79 -22 29 -52 65 -68 80 -15 15 -27 31 -27 35 0 4 -15 25 -34 48
-56 70 -112 167 -157 272 -43 99 -77 162 -130 241 -30 44 -82 151 -133 274
-17 41 -47 100 -67 130 -20 30 -46 73 -59 95 -12 22 -36 56 -52 75 -93 111
-178 265 -261 475 -50 125 -103 315 -122 437 -9 57 -22 141 -30 188 -18 101
-19 215 -4 365 6 61 10 133 10 160 0 28 8 91 18 140 11 50 26 134 35 189 9 55
31 133 50 180 18 44 39 105 45 134 6 30 16 62 22 73 6 11 23 88 39 170 16 83
36 164 44 180 8 17 25 74 36 127 12 53 34 122 49 152 16 30 35 82 42 114 12
54 99 240 196 416 19 36 51 105 69 154 19 50 47 110 63 135 16 26 48 82 71
126 24 44 47 82 51 85 8 6 42 51 83 110 13 20 53 68 90 108 36 40 66 75 66 80
0 9 150 158 212 211 26 21 61 42 77 46 17 4 33 10 36 15 10 16 130 78 195 100
36 12 75 31 86 42 38 35 143 79 237 100 50 11 119 26 152 34 33 8 110 18 170
24 206 18 300 32 357 52 33 12 69 18 85 15 15 -3 51 -1 78 4 150 27 498 38
610 19z m-2131 -3680 c25 -27 46 -54 46 -59 0 -27 211 -252 282 -299 25 -18
48 -35 50 -40 1 -4 32 -24 68 -44 63 -35 82 -51 211 -165 32 -29 64 -53 69
-53 6 0 16 -13 21 -29 10 -27 54 -69 142 -134 30 -23 37 -34 37 -63 0 -34 -35
-84 -59 -84 -12 0 -29 -14 -131 -110 -41 -38 -79 -70 -86 -70 -22 0 -37 29
-31 60 6 25 1 35 -32 65 -21 19 -44 48 -52 63 -22 44 -171 212 -188 212 -6 0
-11 4 -11 9 0 5 -7 16 -15 25 -33 32 -145 189 -162 226 -3 8 -28 47 -54 85
-108 161 -160 282 -176 413 -7 57 12 56 71 -8z m3486 -121 c0 -142 -111 -369
-312 -639 -35 -46 -70 -96 -79 -110 -9 -15 -60 -71 -113 -125 -91 -92 -130
-139 -173 -207 -10 -16 -23 -28 -30 -28 -6 0 -33 32 -60 71 -26 40 -58 86 -69
103 -12 17 -31 40 -43 50 -11 11 -21 25 -21 33 0 7 -4 13 -10 13 -15 0 -12 26
5 40 8 7 15 25 15 40 0 21 6 29 24 34 23 6 40 18 130 96 52 45 99 81 196 150
131 93 174 127 198 159 12 17 29 31 37 31 9 0 23 16 32 35 9 19 20 35 24 35
13 0 69 64 69 78 0 6 4 12 9 12 4 0 27 27 50 60 68 97 121 128 121 69z m-2345
-2130 c30 -12 84 -16 375 -22 85 -2 187 -9 225 -15 39 -7 183 -13 322 -15 312
-4 308 -3 300 -110 -3 -40 -14 -119 -26 -177 -12 -58 -25 -124 -30 -147 -9
-46 -72 -180 -106 -228 -12 -16 -45 -73 -73 -126 -48 -88 -55 -97 -102 -119
-47 -22 -55 -23 -138 -13 -48 5 -220 9 -382 8 l-295 -3 -84 28 c-47 16 -88 36
-93 44 -5 9 -18 16 -28 16 -23 0 -130 78 -130 94 0 6 -11 27 -24 47 -35 51
-56 143 -56 240 0 46 -7 119 -15 162 -17 89 -20 283 -5 292 6 3 10 17 10 30 0
13 6 26 13 28 25 10 312 -2 342 -14z"/>
<path d="M2937 6498 c-7 -4 -33 -8 -58 -8 -25 0 -79 -8 -120 -19 -41 -10 -100
-24 -131 -30 -78 -17 -279 -119 -295 -151 -6 -13 -22 -32 -35 -42 -22 -16 -22
-19 -7 -45 17 -32 25 -33 163 -14 49 7 111 21 137 32 54 24 101 26 289 16 205
-10 380 -41 467 -83 28 -13 58 -24 65 -24 22 0 155 -92 211 -146 44 -42 80
-90 99 -131 11 -25 31 -49 47 -57 25 -14 31 -13 69 10 43 26 52 44 67 142 15
96 -50 297 -110 339 -15 10 -44 33 -65 50 -20 18 -53 36 -71 40 -19 3 -38 12
-44 18 -16 19 -133 53 -240 69 -55 8 -136 20 -180 27 -90 14 -241 18 -258 7z"/>
<path d="M5205 6500 c-119 -6 -201 -23 -296 -61 -27 -10 -65 -19 -83 -19 -19
0 -39 -7 -46 -15 -7 -8 -19 -15 -27 -15 -21 0 -113 -49 -156 -83 -44 -34 -147
-182 -147 -210 0 -10 -5 -27 -10 -38 -6 -10 -11 -52 -12 -92 -1 -112 36 -177
103 -180 29 -2 36 3 51 34 28 59 190 213 266 254 36 19 77 35 91 35 14 0 43 9
66 20 75 37 195 61 319 66 65 2 122 6 126 9 11 7 317 -23 365 -36 22 -6 57
-20 78 -30 20 -11 72 -27 115 -35 42 -9 90 -23 105 -31 39 -20 57 -10 57 29 0
39 -31 89 -107 171 -29 32 -53 62 -53 66 0 13 -109 67 -195 97 -84 28 -156 40
-340 54 -60 4 -119 10 -130 12 -11 3 -74 2 -140 -2z"/>
<path d="M2550 5929 c-19 -4 -62 -12 -95 -18 -86 -15 -249 -99 -310 -160 -52
-50 -95 -140 -110 -227 -9 -59 24 -151 91 -251 60 -89 95 -116 194 -148 30
-10 84 -29 120 -41 36 -13 71 -24 78 -24 7 0 45 -13 85 -29 95 -38 184 -65
282 -86 44 -10 112 -29 151 -44 l71 -27 107 18 c58 9 115 22 126 28 10 5 29
10 41 10 25 0 111 27 154 48 83 41 125 77 141 122 9 25 22 59 29 77 34 79 27
213 -17 329 -17 45 -41 76 -110 146 -49 48 -93 88 -98 88 -6 0 -19 9 -30 20
-11 11 -27 20 -35 20 -8 0 -29 8 -47 18 -153 85 -174 91 -308 96 -68 3 -136
11 -165 21 -55 17 -283 27 -345 14z m440 -199 c47 -12 91 -27 99 -33 8 -7 16
-11 18 -9 13 9 46 -2 78 -28 21 -16 48 -30 60 -30 30 0 101 -68 121 -116 20
-46 22 -148 4 -214 -9 -34 -27 -59 -70 -100 -112 -106 -96 -100 -249 -100
-166 1 -276 13 -299 33 -19 16 -148 57 -181 57 -39 0 -74 24 -92 65 -11 22
-30 58 -43 80 -56 92 -58 97 -53 144 8 81 28 135 65 174 20 20 44 37 53 37 9
0 29 10 45 23 56 44 72 47 219 43 100 -3 166 -11 225 -26z"/>
<path d="M2896 5575 c-15 -8 -37 -15 -48 -15 -10 0 -46 -26 -78 -57 -57 -54
-60 -60 -60 -105 0 -98 44 -150 156 -182 l61 -18 61 27 c34 15 67 35 75 44 19
22 67 151 67 180 0 61 -69 121 -139 121 -16 0 -33 5 -36 10 -9 14 -25 12 -59
-5z"/>
<path d="M5795 5919 c-44 -10 -110 -17 -146 -17 -36 1 -70 -2 -76 -5 -5 -3
-27 -6 -49 -5 -50 0 -200 -38 -239 -61 -16 -10 -45 -21 -64 -25 -44 -8 -218
-111 -231 -137 -6 -10 -17 -19 -24 -19 -37 0 -117 -142 -136 -238 -5 -28 -16
-64 -24 -79 -25 -50 -35 -106 -26 -148 19 -89 62 -190 91 -216 16 -14 29 -33
29 -42 0 -21 16 -30 70 -38 25 -4 72 -12 105 -19 39 -8 97 -10 165 -6 58 4
220 9 360 11 379 7 417 11 452 45 15 16 28 36 28 44 0 9 4 16 10 16 5 0 24 13
42 29 18 15 62 38 98 51 166 58 267 179 296 355 7 44 18 107 24 139 10 56 9
61 -15 95 -14 21 -25 40 -25 43 0 10 -64 73 -115 113 -45 36 -70 49 -165 87
-14 6 -41 12 -60 13 -19 1 -64 7 -100 14 -107 19 -190 19 -275 0z m202 -238
c40 -8 94 -45 121 -82 18 -26 35 -148 33 -239 -1 -61 -6 -81 -27 -113 -69
-104 -122 -139 -264 -172 -41 -10 -95 -27 -120 -38 -91 -40 -454 -32 -523 12
-17 11 -44 26 -60 32 -15 6 -29 21 -32 32 -36 176 -35 206 16 333 34 85 47
107 74 124 38 24 186 70 224 70 14 0 51 7 81 16 30 9 73 19 95 24 54 10 330
11 382 1z"/>
<path d="M5496 5505 c-33 -13 -64 -32 -70 -42 -5 -9 -25 -31 -43 -48 -49 -45
-53 -93 -16 -164 19 -37 39 -61 62 -72 19 -10 39 -23 45 -29 32 -32 204 20
236 72 9 15 28 60 41 98 l24 70 -23 44 c-29 53 -46 63 -172 91 -15 3 -48 -5
-84 -20z"/>
<path d="M3880 2370 c-76 -11 -111 -34 -225 -146 -107 -105 -126 -131 -204
-280 l-24 -45 29 -30 c26 -28 34 -30 79 -27 62 5 195 38 305 75 110 38 240
156 259 236 11 46 10 52 -21 115 -28 57 -40 70 -78 89 -48 23 -52 24 -120 13z"/>
<path d="M4442 2335 c-55 -34 -106 -136 -96 -190 6 -33 47 -94 109 -164 32
-36 177 -111 215 -111 12 0 43 -7 69 -14 164 -52 157 -51 203 -35 79 26 92 57
49 119 -9 14 -39 62 -65 107 -28 48 -71 102 -102 130 -172 156 -199 173 -283
180 -48 3 -62 0 -99 -22z"/>
</g>
</svg>
